<svg xmlns="http://www.w3.org/2000/svg" class="h-5 w-[107px] 800:w-[117px] fill-current" viewBox="0 0 117 21" fill="none"><path d="M57.5482 16.9062C56.6782 17.5791 54.828 19.4816 52.8924 19.4816H48.3491V4.15391C48.3818 2.87777 48.5606 1.60955 48.8819 0.373909V0.290833H45.3438V0.373909C45.5103 1.10291 45.8766 2.58583 45.8766 4.15391V16.5698C45.8766 18.1378 45.5103 19.6208 45.3438 20.3498V20.4328H57.6668V16.9021L57.5482 16.9062Z"></path><path d="M68.9061 0.280151H62.2878V0.363228C62.6063 1.60265 62.7816 2.87439 62.8101 4.15361V16.5695C62.7774 17.8456 62.5986 19.1138 62.2773 20.3495V20.4325H68.9061C73.8428 20.4325 78.303 16.4033 78.303 10.2162C78.2926 4.30938 73.8324 0.280151 68.9061 0.280151ZM68.3733 19.4543H65.2785V1.23138H68.3629C72.7336 1.23138 75.46 5.00931 75.5162 10.2162C75.5432 15.5912 72.7398 19.4543 68.3629 19.4543H68.3733Z"></path><path d="M95.3746 17.5498C94.4776 18.1728 92.6544 19.4813 90.748 19.4813H85.2785V10.4965H88.8166C90.6107 10.4965 92.3215 11.0843 93.1644 11.3647H93.2767V8.73323H93.1644C92.3215 9.01361 90.6107 9.60138 88.8166 9.60138H85.2785V1.23138H90.6627C92.5712 1.23138 94.3944 2.54607 95.2914 3.16292H95.4038V0.280151H82.2773V0.363228C82.4438 1.09223 82.8101 2.57515 82.8101 4.14323V16.5695C82.8101 18.1375 82.4438 19.6205 82.2773 20.3495V20.4325H95.487V17.5498H95.3746Z"></path><path d="M113.446 0.280413V0.392567C113.757 1.3708 114.429 3.38749 114.429 5.48726V16.8231L103.121 0.280413H100.064V0.392567C100.372 1.28772 100.99 3.1071 100.99 5.00957V15.228C100.99 17.3257 100.316 19.3424 100.008 20.3206V20.4328H103.092V20.3206C102.784 19.3424 102.112 17.3257 102.112 15.228V3.18187L113.892 20.4203H115.557V5.46649C115.557 3.36672 116.231 1.35003 116.539 0.371798V0.259644L113.446 0.280413Z"></path><path d="M31.3984 0C29.3403 0 27.3283 0.609047 25.617 1.75012C23.9057 2.8912 22.5719 4.51305 21.7843 6.41059C20.9967 8.30814 20.7906 10.3961 21.1921 12.4106C21.5937 14.425 22.5848 16.2753 24.0401 17.7276C25.4955 19.18 27.3497 20.169 29.3683 20.5697C31.3869 20.9704 33.4792 20.7647 35.3807 19.9787C37.2822 19.1928 38.9075 17.8617 40.0509 16.154C41.1944 14.4463 41.8047 12.4385 41.8047 10.3846C41.8047 7.63044 40.7083 4.98908 38.7568 3.04158C36.8052 1.09409 34.1584 0 31.3984 0ZM31.388 19.7474C26.7468 19.7474 23.8081 15.2405 23.8081 10.2579C23.8081 5.33146 26.7468 0.965769 31.388 0.965769C36.0292 0.965769 38.9992 5.30446 38.9992 10.2309C38.9992 15.2135 36.0251 19.7474 31.388 19.7474Z"></path><path d="M17.4957 0.363228V0.280151H13.9846V0.363228C14.3067 1.60224 14.4855 2.87399 14.5174 4.15361V9.66161C10.8357 11.4332 7.1519 7.89207 3.47017 9.65953V4.15361C3.50292 2.87747 3.68168 1.60925 4.00297 0.373613V0.290536H0.464844V0.373613C0.787535 1.60909 0.967692 2.87731 1.00181 4.15361V16.5695C0.969369 17.847 0.790607 19.1166 0.469006 20.3536V20.4367H4.00713V20.3536C3.68584 19.118 3.50709 17.8498 3.47433 16.5736V10.8558C7.15606 9.0863 10.8399 12.6295 14.5216 10.8558V16.5674C14.488 17.8458 14.3078 19.1161 13.9846 20.3536V20.4367H17.4957V20.3536C17.1744 19.118 16.9957 17.8498 16.9629 16.5736V4.15361C16.9949 2.87399 17.1736 1.60224 17.4957 0.363228Z"></path></svg>