<svg xmlns="http://www.w3.org/2000/svg" class="w-10 h-10 800:w-14 800:h-14" viewBox="0 0 56 58" fill="none">
              <path fill-rule="evenodd" clip-rule="evenodd" d="M28 56.2831C42.9022 56.2831 55 44.0775 55 28.9999C55 13.9224 42.9022 1.7168 28 1.7168C13.0978 1.7168 1 13.9224 1 28.9999C1 44.0775 13.0978 56.2831 28 56.2831ZM28 57.2831C43.464 57.2831 56 44.6203 56 28.9999C56 13.3796 43.464 0.716797 28 0.716797C12.536 0.716797 0 13.3796 0 28.9999C0 44.6203 12.536 57.2831 28 57.2831Z" fill="#59552D"></path>
              <path fill-rule="evenodd" clip-rule="evenodd" d="M28 51.2327C40.1408 51.2327 50 41.2884 50 29.0002C50 16.7119 40.1408 6.76758 28 6.76758C15.8592 6.76758 6 16.7119 6 29.0002C6 41.2884 15.8592 51.2327 28 51.2327ZM28 52.2327C40.7025 52.2327 51 41.8312 51 29.0002C51 16.1692 40.7025 5.76758 28 5.76758C15.2975 5.76758 5 16.1692 5 29.0002C5 41.8312 15.2975 52.2327 28 52.2327Z" fill="#59552D"></path>
            </svg>